#N canvas 729 32 450 300 10;
#X obj 64 2 inlet~ mono;
#X obj 64 210 outlet~ left;
#X obj 150 210 outlet~ right;
#X obj 80 132 osc~;
#X obj 80 28 loadbang;
#X obj 80 54 metro 1000;
#X obj 80 80 random 1000;
#X obj 80 106 / 1000;
#X obj 65 158 *~;
#X obj 150 184 *~;
#X obj 165 158 *~ -1;
#X connect 0 0 8 0;
#X connect 3 0 8 1;
#X connect 3 0 10 0;
#X connect 4 0 5 0;
#X connect 5 0 6 0;
#X connect 6 0 7 0;
#X connect 7 0 3 0;
#X connect 8 0 1 0;
#X connect 8 0 9 0;
#X connect 9 0 2 0;
#X connect 10 0 9 1;
