#N canvas 472 371 379 545 10;
#X obj 73 217 pow;
#X obj 73 191 swap 2;
#X obj 9 165 /;
#X obj 9 9 inlet last_early_reflection_delay_time;
#X obj 73 165 / \$1;
#X obj 9 295 outlet delay_time;
#X obj 41 139 i;
#X obj 9 87 until;
#X obj 73 139 + 1;
#X obj 9 61 i \$1;
#X obj 9 139 f;
#X obj 9 269 pack f f;
#X obj 9 113 t b b;
#X msg 73 113 0;
#X obj 9 217 i;
#X obj 9 191 t b f;
#X obj 86 243 / 2;
#X obj 9 35 t b b f f;
#X obj 54 243 -;
#X connect 0 0 2 1;
#X connect 1 0 0 0;
#X connect 1 1 0 1;
#X connect 2 0 15 0;
#X connect 3 0 17 0;
#X connect 4 0 1 0;
#X connect 6 0 8 0;
#X connect 6 0 4 0;
#X connect 6 0 14 1;
#X connect 7 0 12 0;
#X connect 8 0 6 1;
#X connect 9 0 7 0;
#X connect 10 0 2 0;
#X connect 11 0 5 0;
#X connect 12 0 10 0;
#X connect 12 1 6 0;
#X connect 13 0 6 1;
#X connect 14 0 11 0;
#X connect 15 0 14 0;
#X connect 15 1 18 0;
#X connect 16 0 18 1;
#X connect 17 0 9 0;
#X connect 17 1 13 0;
#X connect 17 2 10 1;
#X connect 17 3 16 0;
#X connect 18 0 11 1;
