#N canvas 0 116 883 908 10;
#X obj 381 454 early_reflection_delay_line;
#X obj 8 -88 loadbang;
#X obj 88 -88 inlet~;
#X obj 8 -62 f \$1;
#X obj 120 652 outlet~;
#X obj 176 652 outlet~;
#X obj 381 792 /~ 96;
#X obj 540 792 /~ 96;
#X obj 14 444 +~;
#X obj 46 444 +~;
#X obj 14 470 +~;
#X obj 46 470 -~;
#X obj 78 470 +~;
#X obj 110 470 -~;
#X obj 8 -10 route 0 1 2 3 4 5 6 7 8 9 10 11 12 13 14 15 16 17 18 19
20 21 22 23 24 25 26 27;
#X obj 14 496 +~;
#X obj 110 496 -~;
#X obj 46 496 +~;
#X obj 78 496 -~;
#X obj 14 522 *~;
#X obj 46 522 *~;
#X obj 78 522 *~;
#X obj 110 522 *~;
#X obj 283 418 inlet feedback;
#X obj 14 548 delwrite~ \$0-loop-delay_1 300;
#X obj 46 574 delwrite~ \$0-loop-delay_2 300;
#X obj 78 600 delwrite~ \$0-loop-delay_3 300;
#X obj 110 626 delwrite~ \$0-loop-delay_4 300;
#X obj 44 218 osc~;
#X obj 44 110 loadbang;
#X obj 44 166 random 100;
#X obj 29 270 +~;
#X obj 381 168 early_reflection_delay_line;
#X obj 381 194 early_reflection_delay_line;
#X obj 381 220 early_reflection_delay_line;
#X obj 381 246 early_reflection_delay_line;
#X obj 381 272 early_reflection_delay_line;
#X obj 381 298 early_reflection_delay_line;
#X obj 381 324 early_reflection_delay_line;
#X obj 381 350 early_reflection_delay_line;
#X obj 381 376 early_reflection_delay_line;
#X obj 381 402 early_reflection_delay_line;
#X obj 381 428 early_reflection_delay_line;
#X obj 381 480 early_reflection_delay_line;
#X obj 381 506 early_reflection_delay_line;
#X obj 381 532 early_reflection_delay_line;
#X obj 381 558 early_reflection_delay_line;
#X obj 381 584 early_reflection_delay_line;
#X obj 381 610 early_reflection_delay_line;
#X obj 381 636 early_reflection_delay_line;
#X obj 381 662 early_reflection_delay_line;
#X obj 381 688 early_reflection_delay_line;
#X obj 381 714 early_reflection_delay_line;
#X obj 381 740 early_reflection_delay_line;
#X obj 381 766 early_reflection_delay_line;
#X obj 118 218 osc~;
#X obj 118 166 random 100;
#X obj 103 270 +~;
#X obj 192 218 osc~;
#X obj 192 166 random 100;
#X obj 177 270 +~;
#X obj 266 218 osc~;
#X obj 266 166 random 100;
#X obj 251 270 +~;
#X obj 125 444 vd~ \$0-loop-delay_4;
#X obj 78 418 vd~ \$0-loop-delay_3;
#X obj 61 392 vd~ \$0-loop-delay_2;
#X obj 29 366 vd~ \$0-loop-delay_1;
#X obj 44 192 / 25;
#X obj 118 192 / 25;
#X obj 192 192 / 25;
#X obj 266 192 / 25;
#X obj 8 -36 delay_time_counter 28;
#X obj 283 444 / 2;
#X obj 266 244 /~ 4;
#X obj 192 244 /~ 4;
#X obj 118 244 /~ 4;
#X obj 44 244 /~ 4;
#X obj 88 -62 hip~ 300;
#X connect 0 0 43 0;
#X connect 0 1 43 1;
#X connect 1 0 3 0;
#X connect 2 0 78 0;
#X connect 3 0 72 0;
#X connect 6 0 8 0;
#X connect 7 0 9 0;
#X connect 8 0 11 0;
#X connect 8 0 10 0;
#X connect 8 0 4 0;
#X connect 9 0 11 1;
#X connect 9 0 10 1;
#X connect 9 0 5 0;
#X connect 10 0 18 0;
#X connect 10 0 15 0;
#X connect 11 0 16 0;
#X connect 11 0 17 0;
#X connect 12 0 18 1;
#X connect 12 0 15 1;
#X connect 13 0 16 1;
#X connect 13 0 17 1;
#X connect 14 0 31 0;
#X connect 14 1 57 0;
#X connect 14 2 60 0;
#X connect 14 3 63 0;
#X connect 14 4 32 2;
#X connect 14 5 33 2;
#X connect 14 6 34 2;
#X connect 14 7 35 2;
#X connect 14 8 36 2;
#X connect 14 9 37 2;
#X connect 14 10 38 2;
#X connect 14 11 39 2;
#X connect 14 12 40 2;
#X connect 14 13 41 2;
#X connect 14 14 42 2;
#X connect 14 15 0 2;
#X connect 14 16 43 2;
#X connect 14 17 44 2;
#X connect 14 18 45 2;
#X connect 14 19 46 2;
#X connect 14 20 47 2;
#X connect 14 21 48 2;
#X connect 14 22 49 2;
#X connect 14 23 50 2;
#X connect 14 24 51 2;
#X connect 14 25 52 2;
#X connect 14 26 53 2;
#X connect 14 27 54 2;
#X connect 15 0 19 0;
#X connect 16 0 22 0;
#X connect 17 0 20 0;
#X connect 18 0 21 0;
#X connect 19 0 24 0;
#X connect 20 0 25 0;
#X connect 21 0 26 0;
#X connect 22 0 27 0;
#X connect 23 0 73 0;
#X connect 28 0 77 0;
#X connect 29 0 30 0;
#X connect 29 0 56 0;
#X connect 29 0 59 0;
#X connect 29 0 62 0;
#X connect 30 0 68 0;
#X connect 31 0 67 0;
#X connect 32 0 33 0;
#X connect 32 1 33 1;
#X connect 33 0 34 0;
#X connect 33 1 34 1;
#X connect 34 0 35 0;
#X connect 34 1 35 1;
#X connect 35 0 36 0;
#X connect 35 1 36 1;
#X connect 36 0 37 0;
#X connect 36 1 37 1;
#X connect 37 0 38 0;
#X connect 37 1 38 1;
#X connect 38 0 39 0;
#X connect 38 1 39 1;
#X connect 39 0 40 0;
#X connect 39 1 40 1;
#X connect 40 0 41 0;
#X connect 40 1 41 1;
#X connect 41 0 42 0;
#X connect 41 1 42 1;
#X connect 42 0 0 0;
#X connect 42 1 0 1;
#X connect 43 0 44 0;
#X connect 43 1 44 1;
#X connect 44 0 45 0;
#X connect 44 1 45 1;
#X connect 45 0 46 0;
#X connect 45 1 46 1;
#X connect 46 0 47 0;
#X connect 46 1 47 1;
#X connect 47 0 48 0;
#X connect 47 1 48 1;
#X connect 48 0 49 0;
#X connect 48 1 49 1;
#X connect 49 0 50 0;
#X connect 49 1 50 1;
#X connect 50 0 51 0;
#X connect 50 1 51 1;
#X connect 51 0 52 0;
#X connect 51 1 52 1;
#X connect 52 0 53 0;
#X connect 52 1 53 1;
#X connect 53 0 54 0;
#X connect 53 1 54 1;
#X connect 54 0 6 0;
#X connect 54 1 7 0;
#X connect 55 0 76 0;
#X connect 56 0 69 0;
#X connect 57 0 66 0;
#X connect 58 0 75 0;
#X connect 59 0 70 0;
#X connect 60 0 65 0;
#X connect 61 0 74 0;
#X connect 62 0 71 0;
#X connect 63 0 64 0;
#X connect 64 0 13 1;
#X connect 64 0 12 1;
#X connect 65 0 12 0;
#X connect 65 0 13 0;
#X connect 66 0 9 1;
#X connect 67 0 8 1;
#X connect 68 0 28 0;
#X connect 69 0 55 0;
#X connect 70 0 58 0;
#X connect 71 0 61 0;
#X connect 72 0 14 0;
#X connect 73 0 22 1;
#X connect 73 0 21 1;
#X connect 73 0 20 1;
#X connect 73 0 19 1;
#X connect 74 0 63 1;
#X connect 75 0 60 1;
#X connect 76 0 57 1;
#X connect 77 0 31 1;
#X connect 78 0 32 1;
#X connect 78 0 32 0;
