#N canvas 0 0 1249 923 10;
#X obj 84 108 noise~;
#X obj 147 189 *~;
#X obj 165 162 vline~;
#X obj 107 162 vline~;
#X obj 147 216 outlet~;
#X obj 84 2 loadbang;
#X msg 107 135 \$1 10;
#X msg 165 135 \$1 \, 0 5;
#X obj 84 81 random \$1;
#X obj 84 29 metro;
#X obj 83 189 vcf~ \$2;
#X obj 128 29 inlet;
#X obj 95 55 random;
#X obj 165 81 random 50;
#X connect 0 0 10 0;
#X connect 1 0 4 0;
#X connect 2 0 1 1;
#X connect 3 0 10 1;
#X connect 5 0 9 0;
#X connect 6 0 3 0;
#X connect 7 0 2 0;
#X connect 8 0 6 0;
#X connect 9 0 8 0;
#X connect 9 0 12 0;
#X connect 9 0 13 0;
#X connect 10 1 1 0;
#X connect 11 0 12 1;
#X connect 12 0 9 1;
#X connect 13 0 7 0;
